<?xml version="1.0" standalone="no"?><!DOCTYPE svg PUBLIC "-//W3C//DTD SVG 1.1//EN" "http://www.w3.org/Graphics/SVG/1.1/DTD/svg11.dtd"><svg t="1590248032879" class="icon" viewBox="0 0 1024 1024" version="1.1" xmlns="http://www.w3.org/2000/svg" p-id="777" xmlns:xlink="http://www.w3.org/1999/xlink" width="200" height="200"><defs><style type="text/css"></style></defs><path d="M512 102.4C248.49066667 102.4 34.13333333 316.75733333 34.13333333 580.26666667c0 107.24693333 34.7136 208.55466667 100.352 293.00053333a34.0992 34.0992 0 1 0 53.89653334-41.84746667A405.74293333 405.74293333 0 0 1 102.4 580.26666667C102.4 354.4064 286.13973333 170.66666667 512 170.66666667s409.6 183.73973333 409.6 409.6c0 91.88693333-29.73013333 178.75626667-86.016 251.15306666a34.03093333 34.03093333 0 0 0 6.00746667 47.85493334 33.96266667 33.96266667 0 0 0 47.85493333-6.00746667A472.81493333 472.81493333 0 0 0 989.86666667 580.26666667c0-263.50933333-214.35733333-477.86666667-477.86666667-477.86666667z" p-id="778"></path><path d="M512 341.33333333a34.13333333 34.13333333 0 0 0 34.13333333-34.13333333V238.93333333a34.13333333 34.13333333 0 1 0-68.26666666 0v68.26666667a34.13333333 34.13333333 0 0 0 34.13333333 34.13333333zM223.88053333 415.4368a34.13333333 34.13333333 0 1 0-38.16106666 56.59306667l56.59306666 38.16106666a34.06506667 34.06506667 0 0 0 47.37706667-9.216 34.13333333 34.13333333 0 0 0-9.216-47.37706666l-56.59306667-38.16106667zM830.7712 418.06506667a34.13333333 34.13333333 0 0 0-48.16213333-3.3792l-51.54133334 44.78293333a34.13333333 34.13333333 0 0 0 44.78293334 51.54133333l51.54133333-44.78293333a34.13333333 34.13333333 0 0 0 3.3792-48.16213333zM613.75146667 750.93333333c0-2.7648 0.3072-5.46133333-0.37546667-8.26026666l-68.26666667-273.06666667c-0.37546667-1.536-1.36533333-2.6624-1.9456-4.096-0.9216-2.28693333-1.7408-4.53973333-3.14026666-6.58773333-1.19466667-1.77493333-2.69653333-3.14026667-4.16426667-4.64213334-1.60426667-1.6384-3.10613333-3.20853333-5.0176-4.5056-1.87733333-1.26293333-3.95946667-2.01386667-6.0416-2.8672-1.536-0.64853333-2.79893333-1.70666667-4.5056-2.11626666-0.54613333-0.13653333-1.05813333 0.03413333-1.60426667-0.06826667-2.18453333-0.44373333-4.4032-0.3072-6.69013333-0.3072-2.2528 0-4.47146667-0.13653333-6.656 0.3072-0.54613333 0.1024-1.09226667-0.06826667-1.6384 0.06826667-1.7408 0.44373333-3.03786667 1.536-4.64213333 2.21866666-2.01386667 0.85333333-3.9936 1.57013333-5.8368 2.7648-2.01386667 1.3312-3.584 3.00373333-5.25653334 4.67626667-1.4336 1.4336-2.83306667 2.7648-3.9936 4.47146667-1.39946667 2.048-2.21866667 4.26666667-3.14026666 6.5536-0.58026667 1.4336-1.57013333 2.59413333-1.97973334 4.13013333l-68.26666666 273.06666667c-0.7168 2.79893333-0.37546667 5.5296-0.37546667 8.26026666H409.6c0 1.50186667 0.37546667 2.8672 0.44373333 4.36906667l0.13653334 1.39946667C413.25226667 810.42773333 457.5232 853.33333333 512 853.33333333s98.74773333-42.9056 101.81973333-96.63146666l0.13653334-1.39946667c0.06826667-1.46773333 0.44373333-2.8672 0.44373333-4.36906667h-0.64853333zM512 785.06666667a33.92853333 33.92853333 0 0 1-33.65546667-31.81226667L512 618.56426667l33.65546667 134.656A33.8944 33.8944 0 0 1 512 785.06666667z" p-id="779"></path></svg>