<?xml version="1.0" standalone="no"?><!DOCTYPE svg PUBLIC "-//W3C//DTD SVG 1.1//EN" "http://www.w3.org/Graphics/SVG/1.1/DTD/svg11.dtd"><svg t="1590248295534" class="icon" viewBox="0 0 1024 1024" version="1.1" xmlns="http://www.w3.org/2000/svg" p-id="6297" xmlns:xlink="http://www.w3.org/1999/xlink" width="200" height="200"><defs><style type="text/css"></style></defs><path d="M207.488 83.072 207.488 244.48 64 244.48l0 268.032 0 266.944c0 89.216 72.32 161.472 161.408 161.472l572.992 0c89.28 0 161.536-72.32 161.536-161.472l0-44.928L959.936 512.512 959.936 244.48 959.936 83.072 207.488 83.072zM116.736 550.656 116.736 296.064l90.752 0 0 417.216c0 82.624-28.992 112.192-52.16 122.496-23.936-26.944-38.592-62.336-38.592-101.248L116.736 550.656zM906.176 550.656l0 183.872c0 84.288-68.352 152.64-152.576 152.64L269.184 887.168c-16.768 0-32.832-2.88-47.808-7.808 43.648-38.272 37.76-144.832 37.76-144.832l0-50.368L259.136 296.064l3.392 0L262.528 244.48 259.136 244.48 259.136 136.832l647.04 0L906.176 550.656z" p-id="6298"></path><path d="M331.968 244.48l485.568 0 0 67.264-485.568 0 0-67.264Z" p-id="6299"></path><path d="M331.968 391.36l180.032 0 0 44.864-180.032 0 0-44.864Z" p-id="6300"></path><path d="M565.248 391.36l252.288 0 0 314.176-252.288 0 0-314.176Z" p-id="6301"></path><path d="M331.968 481.28l180.032 0 0 44.864-180.032 0 0-44.864Z" p-id="6302"></path><path d="M331.968 569.92l180.032 0 0 44.8-180.032 0 0-44.8Z" p-id="6303"></path><path d="M331.968 660.672l180.032 0 0 44.864-180.032 0 0-44.864Z" p-id="6304"></path></svg>