<?xml version="1.0" standalone="no"?><!DOCTYPE svg PUBLIC "-//W3C//DTD SVG 1.1//EN" "http://www.w3.org/Graphics/SVG/1.1/DTD/svg11.dtd"><svg t="1590248086031" class="icon" viewBox="0 0 1024 1024" version="1.1" xmlns="http://www.w3.org/2000/svg" p-id="1023" xmlns:xlink="http://www.w3.org/1999/xlink" width="200" height="200"><defs><style type="text/css"></style></defs><path d="M512.52734375 961.296875c-60.64453125 0-119.44335938-11.86523438-174.81445314-35.33203125-53.4375-22.58789063-101.51367188-55.01953125-142.73437498-96.24023438S121.4140625 740.515625 98.73828125 687.078125c-23.37890625-55.37109375-35.33203125-114.16992188-35.33203126-174.81445313s11.86523438-119.44335938 35.33203126-174.81445312c22.58789063-53.4375 55.01953125-101.51367188 96.24023438-142.734375S284.27539062 121.15039062 337.71289063 98.5625C393.08398437 75.18359375 451.88281251 63.23046875 512.52734375 63.23046875s119.44335938 11.86523438 174.81445312 35.33203125c53.4375 22.58789063 101.51367188 55.01953125 142.734375 96.24023438s73.56445313 89.20898438 96.24023438 142.73437499c23.37890625 55.37109375 35.33203125 114.16992188 35.33203126 174.81445314s-11.86523438 119.44335938-35.33203126 174.81445312c-22.58789063 53.4375-55.01953125 101.51367188-96.24023438 142.73437499S740.77929689 903.37695313 687.25390625 925.96484375c-55.37109375 23.46679689-114.16992188 35.33203125-174.7265625 35.33203125z m0-841.81640625c-216.5625 0-392.78320313 176.22070313-392.78320313 392.78320313 0 216.5625 176.22070313 392.78320313 392.78320313 392.78320312 216.5625 0 392.78320313-176.22070313 392.78320313-392.78320313C905.22265625 295.70117187 729.08984375 119.48046875 512.52734375 119.48046875z" p-id="1024"></path><path d="M508.74804687 666.95117188c-60.11718749 0-116.63085938-23.37890625-159.16992187-65.91796875s-65.91796875-99.05273439-65.91796875-159.16992188 23.37890625-116.63085938 65.91796875-159.16992188 99.05273439-65.91796875 159.16992188-65.91796875c60.11718749 0 116.63085938 23.37890625 159.16992187 65.91796876s65.91796875 99.05273439 65.91796875 159.16992187-23.37890625 116.63085938-65.91796875 159.16992188-99.05273439 65.91796875-159.16992188 65.91796874z m0-393.92578126c-93.07617188 0-168.83789063 75.76171875-168.83789062 168.83789063 0 93.07617188 75.76171875 168.83789063 168.83789063 168.83789063 93.07617188 0 168.83789063-75.76171875 168.83789062-168.83789063 0-93.07617188-75.76171875-168.83789063-168.83789063-168.83789063z" p-id="1025"></path><path d="M246.21874999 866.375c-2.98828125 0-5.9765625-0.43945313-8.96484374-1.49414063-14.765625-4.921875-22.67578125-20.91796875-17.75390626-35.59570312 10.1953125-30.32226563 24.9609375-58.7109375 43.94531251-84.55078124 18.80859375-25.48828125 41.22070313-47.90039063 66.796875-66.62109376 53.17382813-38.84765625 116.10351563-59.4140625 182.19726563-59.4140625 66.00585938 0 129.0234375 20.56640625 182.19726562 59.4140625 25.57617188 18.72070313 48.07617188 41.1328125 66.796875 66.62109376 18.984375 25.83984374 33.75 54.31640625 43.9453125 84.55078124 4.921875 14.765625-2.98828125 30.67382813-17.75390625 35.59570313-14.765625 4.921875-30.67382813-2.98828125-35.59570313-17.75390625-34.54101563-103.0078125-130.86914063-172.26562499-239.58984374-172.26562501-108.72070313 0-205.04882813 69.2578125-239.58984376 172.26562501-3.8671875 11.77734375-14.85351563 19.24804688-26.63085936 19.24804687z" p-id="1026"></path></svg>